Inverse Dynamics Generalized Forces
version=1
nRows=16
nColumns=34
inDegrees=no
endheader 
time	pelvis_tilt_moment	pelvis_list_moment	pelvis_rotation_moment	pelvis_tx_force	pelvis_ty_force	pelvis_tz_force	hip_flexion_l_moment	hip_adduction_l_moment	hip_rotation_l_moment	hip_flexion_r_moment	hip_adduction_r_moment	hip_rotation_r_moment	knee_angle_l_moment	knee_angle_r_moment	ankle_angle_l_moment	ankle_angle_r_moment	subtalar_angle_l_moment	subtalar_angle_r_moment	mtp_angle_l_moment	mtp_angle_r_moment	lumbar_extension_moment	lumbar_bending_moment	lumbar_rotation_moment	arm_flex_l_moment	arm_add_l_moment	arm_rot_l_moment	arm_flex_r_moment	arm_add_r_moment	arm_rot_r_moment	elbow_flex_l_moment	elbow_flex_r_moment	pro_sup_l_moment	pro_sup_r_moment	
          4.87000000	         -0.00000000	          0.00000000	          0.00000000	         -0.00000000	         -0.00000000	          0.00000000	         93.63003453	         16.95714563	          1.02480920	        -14.21251966	         16.72240218	         -0.37941539	        -33.80925117	         11.82882352	          2.04630805	         -0.29527952	         -0.36178804	          0.16563335	         -0.05621801	          0.02603852	       -138.63119503	         -0.55329368	         63.52992945	         -4.94060223	         31.46269590	         15.97104405	       -122.07886735	       -100.16686565	          0.19142684	         44.34088412	        -40.35553945	         -0.00447562	          1.87679925	
          4.88000000	          0.00000000	          0.00000000	          0.00000000	          0.00000000	         -0.00000000	          0.00000000	         91.85380070	         23.29693709	          0.88768950	        -12.32067033	         15.37232295	         -0.58925163	        -33.40480670	          2.88859331	          1.92402655	          0.42473071	         -0.09605447	         -0.00498473	         -0.05279434	         -0.04320920	       -131.47059096	         -8.09155840	         77.97264977	         14.34472484	         60.00430628	         49.31550474	       -128.52561259	       -111.87135365	          0.33870492	         60.76593412	        -49.55864362	          0.50860495	          2.04409379	
          4.89000000	          0.00000000	         -0.00000000	         -0.00000000	          0.00000000	          0.00000000	         -0.00000000	         89.74319409	         30.95930827	          1.00125170	        -39.88442972	         27.31780945	         -6.66785827	        -30.06746208	          5.45450292	          1.92414895	          0.17809713	          0.02941135	          0.18304959	         -0.07170267	         -0.06081917	        -87.55646097	        -15.57072665	         93.77088312	         47.87240017	         82.16707455	         73.98374076	       -133.04254910	        -52.69111179	          0.30982029	         57.53985957	        -43.24121215	          1.54516626	          0.76596276	
          4.90000000	         -0.00000000	         -0.00000000	         -0.00000000	          0.00000000	          0.00000000	         -0.00000000	         82.68250601	         36.36399545	          1.47952982	        -38.12143848	         24.38398440	         -6.54349853	        -25.91301998	         -2.94632625	          1.67372069	          0.12517710	          0.41758885	         -0.25135051	         -0.09235914	         -0.04150923	        -72.19989824	        -22.44100115	        102.22125630	          2.50036286	         34.38103159	         92.15529933	        -78.43314906	         -1.62629763	         32.40612302	         15.91392153	          3.89524027	          3.66481707	          5.72692156	
          4.91000000	         -0.00000000	          0.00000000	         -0.00000000	         -0.00000000	          0.00000000	         -0.00000000	         49.95631323	         36.99572713	         -2.94097256	        -33.75649645	         19.60093440	         -7.58811879	        -18.65352192	         -5.69268663	          1.15146199	         -0.62380934	          0.58202147	         -0.39286895	         -0.09611565	          0.03597041	         -7.28734026	        -19.74889938	         69.08455806	        -35.65024601	        -11.31317201	         33.37467005	        -18.74848198	         36.56401490	         62.31062865	        -22.13912115	         38.84937056	          2.16693527	          6.16807386	
          4.92000000	         -0.00000000	          0.00000000	         -0.00000000	         -0.00000000	          0.00000000	          0.00000000	         60.86803221	         90.70277045	         -1.62353523	         13.06800254	         13.36011075	         -2.14828363	        -19.15134711	        -16.94289155	          0.84230212	          1.09291533	          2.20564408	         -0.23740125	         -0.10553480	         -0.04099453	        -62.25855703	         56.87473263	        126.46777900	        -64.19468497	        -26.99750282	        -12.76300243	         28.20949702	         64.84714892	         86.22375824	        -29.33219878	         66.00767151	         -1.05107347	         -3.77612307	
          4.93000000	          0.00000000	         -0.00000000	         -0.00000000	         -0.00000000	          0.00000000	         -0.00000000	         31.69541691	         71.05896133	         -6.17748796	        -89.80768040	         54.76584221	        -15.83199513	         16.43845314	         50.28137868	          2.30454729	          0.47737173	         -0.09944699	          3.97219792	         -0.16441263	         -0.14243675	       -121.34223443	        117.29590462	        165.92278846	        -10.75278647	         17.15589368	        -46.71661329	         65.22837411	         84.98443932	        107.92608137	        -43.76168552	         87.47316221	         -0.89958035	          1.70089087	
          4.94000000	          0.00000000	          0.00000000	          0.00000000	         -0.00000000	         -0.00000000	          0.00000000	         61.21544934	         98.31297517	         -2.16459541	        -50.63284827	         19.45200092	         -9.20423589	         -1.95631707	         40.27937657	          0.22804692	         -0.21083546	          1.68149488	          2.84281321	         -0.04715652	         -0.06819558	       -165.73866409	        139.28250754	        199.23844863	         13.44114863	         35.13495870	        -71.90417594	         61.01395900	         23.28997666	        110.44503539	          4.39476494	         35.20370939	         -2.74442626	         -8.27214238	
          4.95000000	         -0.00000000	         -0.00000000	          0.00000000	         -0.00000000	          0.00000000	         -0.00000000	         25.85176260	        101.32177947	         -6.58681573	        -46.99500300	         17.34753400	        -12.39001058	          4.16932016	         29.45294227	         -1.00358550	         -0.48944049	          2.28200667	          1.81723249	          0.01882855	         -0.05283603	        -53.96220059	        110.46302551	        147.52407445	        -19.85048339	         17.38462523	        -16.09218658	         72.04955177	        -20.52564261	        121.47642230	        -21.67901949	         51.04515860	         -0.24064220	          1.06015709	
          4.96000000	          0.00000000	          0.00000000	          0.00000000	          0.00000000	         -0.00000000	         -0.00000000	         23.71468771	        108.66781382	         -6.84610181	        -31.31513188	          5.08504857	        -10.59406098	         -5.43771424	         14.64321217	         -1.15234179	         -0.11963493	          2.59925058	          0.44019165	          0.03059649	         -0.05558041	        -20.95768769	        130.08197451	        145.55069919	          8.34152652	         40.35114197	         25.68282892	         92.09382224	        -53.09391230	        130.19931562	        -18.33949232	         70.71853684	          1.26234555	          4.12937736	
          4.97000000	          0.00000000	         -0.00000000	          0.00000000	         -0.00000000	         -0.00000000	          0.00000000	         16.09088772	        103.66995028	         -7.04084691	        -16.77493419	          3.68872252	        -10.61414173	         -8.97546766	          3.18219993	         -1.38500129	          0.10822162	          2.68349507	         -0.21388530	          0.05568089	         -0.05041131	          1.43691394	        118.43328496	        136.42170123	         23.66654282	         45.47685994	         12.44426133	        106.72571645	        -77.30645002	        135.21047287	        -21.72910070	         66.31916618	          0.87675829	          6.17586234	
          4.98000000	          0.00000000	         -0.00000000	         -0.00000000	          0.00000000	          0.00000000	         -0.00000000	         16.50085068	         92.96174502	         -6.14378076	        -15.53531279	          2.15056946	         -7.35930042	        -13.33022925	         -0.32603101	         -1.37777833	         -0.04741226	          2.45855661	         -0.58158233	          0.07649596	         -0.01897912	         20.69883461	         98.94703624	        121.69886851	         31.94835568	         45.77519661	         -8.57890136	        117.80068390	        -95.68062461	        137.59445044	        -22.69562811	         64.13807109	          0.20608599	          7.60479625	
          4.99000000	         -0.00000000	          0.00000000	          0.00000000	          0.00000000	          0.00000000	         -0.00000000	         11.94373169	         79.64713156	         -5.40518964	         -9.28359805	          0.99952556	         -8.40317639	        -11.42923804	         -6.31961311	         -1.01288946	          0.55583505	          2.04759990	         -1.01338466	          0.06503541	         -0.07725800	         39.38539649	         68.84647841	        100.67307556	         31.23028488	         35.10120686	          6.18656577	        126.25093161	       -109.67234064	         63.21521868	         -6.02490506	         42.59189538	         -0.06049779	          1.44273717	
          5.00000000	         -0.00000000	          0.00000000	          0.00000000	         -0.00000000	         -0.00000000	          0.00000000	         11.01099029	         65.31747221	         -4.08679213	        -13.33570719	          0.87358633	         -6.64552551	         -9.90354967	         -4.15756795	         -0.51341224	          0.54991270	          1.53071596	         -0.95246865	          0.03426596	         -0.07563543	         43.56051618	         47.83359566	         81.51637490	         16.45324256	         13.91330146	         36.69483485	        132.22190839	       -119.69839651	         46.81137564	          2.42068392	         40.85154185	          0.87998525	          0.98455276	
          5.01000000	         -0.00000000	          0.00000000	          0.00000000	         -0.00000000	         -0.00000000	         -0.00000000	          9.28087625	         53.56725709	         -3.11357782	        -29.03401042	          8.89393634	         -8.13508038	         -8.16357537	          3.61192551	         -0.27318479	          0.24630144	          1.20560374	         -0.54700525	          0.00043349	         -0.07124494	         42.10993753	         21.83425780	         66.75474458	          0.01422592	         -5.35180118	         55.10089844	         62.01717663	       -126.81514794	         30.18595182	          9.41499683	          6.60767928	          1.54280015	          5.96255370	
          5.02000000	         -0.00000000	         -0.00000000	         -0.00000000	          0.00000000	          0.00000000	         -0.00000000	          7.35261361	         43.88330076	         -2.36730730	        -32.22330039	         11.35915050	         -7.32758615	         -5.94913609	          6.97469573	          0.14603962	          0.19150048	          0.88934058	         -0.27568426	         -0.02766281	         -0.05818211	         31.19141981	          8.36187439	         57.25940349	        -16.46808355	          2.91204973	         37.85824575	         78.54767451	       -131.76432589	         -6.89506105	         13.31255826	        -31.56205296	          0.86384072	          2.20047500	
